<svg width="73" height="72" viewBox="0 0 73 72" fill="none" xmlns="http://www.w3.org/2000/svg">
<path opacity="0.3" d="M15.5 24.15L35.9 35.8499V59.5499L15.5 47.5499V24.15Z" fill="#343449"/>
<path d="M60.7999 19.95L37.4 6.45C36.5 5.85 35.3 5.85 34.4 6.45L11 19.95C10.1 20.55 9.5 21.45 9.5 22.35V49.35C9.5 50.25 10.1 51.45 11 51.75L34.4 65.25C35 65.55 35.3 65.55 35.9 65.55C36.5 65.55 36.8 65.55 37.4 65.25L60.7999 51.75C61.6999 51.15 62.2999 50.25 62.2999 49.35V22.35C62.2999 21.45 61.6999 20.25 60.7999 19.95ZM15.5 47.55V23.85L35.9 12.15L56.2999 23.85L35.9 35.85V59.55L15.5 47.55Z" fill="#343449"/>
</svg>
